<?xml version="1.0" encoding="iso-8859-1"?>
<!-- Uploaded to: SVG Repo, www.svgrepo.com, Generator: SVG Repo Mixer Tools -->
<!DOCTYPE svg PUBLIC "-//W3C//DTD SVG 1.1//EN" "http://www.w3.org/Graphics/SVG/1.1/DTD/svg11.dtd">
<svg fill="#000000" version="1.1" id="Capa_1" xmlns="http://www.w3.org/2000/svg" xmlns:xlink="http://www.w3.org/1999/xlink" 
	 width="800px" height="800px" viewBox="0 0 31.659 31.659"
	 xml:space="preserve">
<g>
	<g>
		<path d="M26.48,2.624H5.179C2.319,2.624,0,4.935,0,7.794v10.188c0,2.861,2.318,5.138,5.179,5.138h13.043l7.916,5.644
			c0.238,0.168,0.521,0.271,0.805,0.271c0.219,0,0.451-0.045,0.652-0.148c0.463-0.24,0.77-0.709,0.77-1.229V23.01
			c1.83-0.533,3.294-2.297,3.294-4.385V7.794C31.659,4.935,29.342,2.624,26.48,2.624z M28.914,18.621
			c0,0.978-0.818,1.754-1.796,1.754h-0.175c-0.768,0-1.323,0.642-1.323,1.406v3.187l-6.117-4.326
			c-0.235-0.166-0.55-0.267-0.837-0.267H5.179c-1.328,0-2.434-1.062-2.434-2.392V7.794c0-1.328,1.105-2.425,2.434-2.425H26.48
			c1.328,0,2.434,1.097,2.434,2.425V18.621z"/>
		<path d="M24.018,12.827c-0.109-0.439-0.283-0.874-0.51-1.251l0.838-0.85l-1.605-1.61l-0.838,0.837
			c-0.375-0.226-0.785-0.373-1.219-0.483c-0.004-0.002-0.012-1.171-0.012-1.171H18.4l0.009,1.156
			c-0.444,0.096-0.873,0.275-1.258,0.507l-0.84-0.844l-1.605,1.602l0.838,0.837c-0.225,0.377-0.399,0.834-0.51,1.272
			c-0.003,0.002-0.003,0.045-0.003,0.045h-1.126v2.197h1.125c-0.004,0-0.008-0.049-0.014-0.072c0.006,0.022,0.01,0.041,0.014,0.062
			c0.11,0.444,0.287,0.86,0.517,1.245l-0.84,0.837l1.605,1.604l0.84-0.838c0.385,0.229,0.812,0.431,1.258,0.541l-0.009,1.194h2.271
			c0,0,0.008-1.205,0.012-1.207c0.435-0.11,0.845-0.293,1.218-0.52l0.84,0.834l1.604-1.607l-0.838-0.84
			c0.229-0.384,0.405-0.798,0.518-1.241c0.005-0.021,0.005,0.007,0,0.007h1.23v-2.197h-1.234
			C24.02,12.872,24.02,12.829,24.018,12.827z M19.528,15.509c-0.872,0-1.581-0.709-1.581-1.584c0-0.872,0.709-1.58,1.581-1.58
			c0.875,0,1.581,0.708,1.581,1.58C21.109,14.8,20.403,15.509,19.528,15.509z"/>
		<path d="M12.95,10.575c0.002-0.325-0.045-0.644-0.133-0.952l0.737-0.431l-0.828-1.411L11.99,8.213
			c-0.221-0.225-0.476-0.42-0.757-0.577c-0.003-0.001,0.21-0.835,0.21-0.835L9.859,6.389L9.65,7.215
			C9.322,7.199,8.99,7.256,8.681,7.348L8.247,6.612L6.836,7.438L7.27,8.175c-0.228,0.223-0.425,0.48-0.582,0.767
			c-0.002,0-0.002,0-0.002,0.001L5.868,8.729L5.43,10.312l0.794,0.214v-0.002c0,0.329,0.064,0.652,0.156,0.963l-0.727,0.432
			l0.834,1.411l0.74-0.431c0.228,0.227,0.493,0.431,0.785,0.589l-0.219,0.818l1.582,0.413c0,0,0.223-0.823,0.224-0.824
			c0.323,0.002,0.64-0.044,0.94-0.132l0.432,0.737l1.413-0.828l-0.432-0.737c0.228-0.225,0.429-0.485,0.586-0.773
			c0.007-0.015,0.007-0.014,0,0.001l0.831,0.215l0.412-1.582L12.95,10.58C12.951,10.576,12.951,10.576,12.95,10.575z M10.713,10.842
			c-0.159,0.61-0.781,0.975-1.391,0.816c-0.606-0.158-0.972-0.783-0.813-1.39C8.666,9.659,9.29,9.292,9.9,9.451
			C10.508,9.61,10.873,10.233,10.713,10.842z"/>
	</g>
</g>
</svg>